<svg xmlns="http://www.w3.org/2000/svg" version="1.1" xmlns:xlink="http://www.w3.org/1999/xlink" width="512" height="512" x="0" y="0" viewBox="0 0 32 32" style="enable-background:new 0 0 512 512" xml:space="preserve" class=""><g><path fill="#ffffff" d="M26 32H6a6 6 0 0 1-6-6V6a6 6 0 0 1 6-6h20a6 6 0 0 1 6 6v20a6 6 0 0 1-6 6z" opacity="1" data-original="#fff9dd" class=""></path><path fill="#ddefff" d="M17.5 8H9.833C8.82 8 8 8.82 8 9.833v10.333C8 21.18 8.82 22 9.833 22H13.1a2.48 2.48 0 0 1 .34-.753l3.48-5.653c.447-.767 1.313-1.26 2.247-1.26.053 0 .113 0 .167.007V9.833A1.834 1.834 0 0 0 17.5 8zm-6.833 2.667h2.667c.367 0 .667.3.667.667S13.7 12 13.333 12h-2.667c-.366 0-.666-.3-.666-.667s.3-.666.667-.666zM14 17.333h-3.333c-.367 0-.667-.3-.667-.667s.3-.666.667-.666H14c.367 0 .667.3.667.667s-.3.666-.667.666zm2.667-2.666h-6c-.367 0-.667-.3-.667-.667s.3-.667.667-.667h6c.367 0 .667.3.667.667a.67.67 0 0 1-.667.667z" opacity="1" data-original="#ffd200" class=""></path><path fill="#0d3b85" d="M23.805 22.016 20.286 16.3c-.23-.391-.659-.634-1.119-.634s-.889.243-1.113.622l-3.51 5.704c-.137.204-.21.447-.21.703 0 .718.587 1.303 1.308 1.303h7.051A1.304 1.304 0 0 0 24 22.697c0-.256-.073-.499-.195-.681zm-4.638.651a.667.667 0 1 1 0-1.334.667.667 0 0 1 0 1.334zm.666-2.334a.667.667 0 1 1-1.334 0V19a.667.667 0 1 1 1.334 0z" opacity="1" data-original="#ffe777" class=""></path></g></svg>